<?xml version="1.0" standalone="no"?>
<!DOCTYPE svg PUBLIC "-//W3C//DTD SVG 20010904//EN"
 "http://www.w3.org/TR/2001/REC-SVG-20010904/DTD/svg10.dtd">
<svg version="1.0" xmlns="http://www.w3.org/2000/svg"
 width="1350.000000pt" height="1350.000000pt" viewBox="0 0 1350.000000 1350.000000"
 preserveAspectRatio="xMidYMid meet">
<metadata>
Created by potrace 1.14, written by Peter Selinger 2001-2017
</metadata>
<g transform="translate(0.000000,1350.000000) scale(0.100000,-0.100000)"
fill="#000000" stroke="none">
<path d="M7762 9453 c-6 -3 -10 -9 -6 -14 3 -5 2 -9 -3 -8 -21 4 -33 -2 -33
-17 0 -9 -5 -12 -12 -8 -8 5 -9 2 -5 -10 4 -10 3 -15 -3 -11 -6 3 -13 -1 -16
-9 -3 -9 -10 -13 -15 -10 -5 3 -9 1 -9 -5 0 -6 -18 -28 -40 -50 -22 -22 -40
-37 -40 -33 0 3 -6 -3 -14 -13 -8 -11 -12 -23 -10 -27 3 -4 -3 -5 -12 -1 -12
4 -15 3 -10 -5 4 -7 1 -12 -8 -12 -8 0 -18 -5 -22 -12 -5 -7 -2 -9 7 -4 8 4 2
-2 -14 -14 -15 -12 -25 -26 -22 -31 4 -5 -2 -6 -11 -2 -12 4 -15 3 -10 -5 4
-7 1 -12 -7 -12 -7 0 -19 -12 -26 -26 -7 -16 -17 -24 -26 -20 -8 3 -14 2 -14
-2 3 -18 -2 -35 -7 -29 -4 4 -19 -9 -34 -28 -15 -19 -31 -31 -35 -27 -5 4 -5
-1 -2 -11 4 -10 3 -16 -1 -13 -4 2 -16 -2 -27 -10 -10 -8 -16 -14 -13 -14 7 0
-55 -65 -67 -70 -5 -2 -25 -22 -43 -45 -19 -22 -42 -44 -53 -49 -10 -5 -19
-15 -19 -23 0 -8 -5 -11 -12 -7 -8 5 -9 2 -5 -10 4 -9 3 -15 -1 -12 -5 3 -16
-4 -25 -15 -18 -21 -17 -61 1 -67 7 -2 12 -8 12 -12 0 -17 49 -59 54 -47 2 7
5 2 5 -10 1 -17 7 -23 24 -23 16 0 18 -3 8 -9 -11 -7 -9 -10 8 -16 11 -3 21
-12 21 -19 0 -7 11 -19 25 -26 13 -7 22 -17 19 -22 -3 -4 0 -8 6 -8 12 0 70
-57 70 -69 0 -3 16 -17 34 -31 19 -14 33 -27 31 -30 -2 -3 3 -10 10 -17 11
-10 15 -10 18 0 3 7 6 2 6 -10 1 -17 7 -23 24 -23 16 0 18 -3 8 -9 -11 -7 -9
-10 8 -16 11 -3 21 -13 21 -21 0 -8 8 -14 17 -14 9 0 14 -2 11 -5 -6 -7 60
-75 72 -75 5 0 12 -9 15 -20 3 -11 13 -20 21 -20 7 0 27 -18 43 -40 18 -25 31
-36 34 -28 3 7 6 3 6 -10 1 -13 5 -20 11 -17 6 3 10 -1 10 -9 0 -9 4 -16 9
-16 6 0 22 -11 36 -24 27 -25 50 -25 70 -1 6 6 18 14 28 18 10 4 15 11 12 17
-3 5 -1 10 5 10 6 0 44 34 84 75 41 41 77 71 81 67 3 -4 5 -2 3 3 -1 6 77 90
175 188 97 98 177 182 177 188 0 6 3 8 8 6 9 -6 33 19 25 27 -4 3 -1 6 6 6 22
0 124 112 111 120 -8 5 -9 9 -2 11 6 2 -4 21 -22 41 -18 21 -36 34 -40 31 -3
-3 -6 1 -6 10 0 8 -9 18 -20 22 -11 3 -19 10 -17 14 3 10 -82 91 -95 91 -6 0
-8 3 -5 6 7 7 -200 214 -214 214 -5 0 -8 4 -6 8 3 10 -81 92 -94 92 -6 0 -8 3
-6 8 6 9 -90 102 -97 94 -3 -3 -6 0 -6 6 0 15 -36 52 -51 52 -5 0 -8 4 -5 8 3
5 -4 14 -14 22 -10 8 -16 18 -13 24 3 6 3 8 -2 4 -4 -4 -13 -4 -19 1 -6 4 -17
6 -24 4z"/>
<path d="M4567 7722 c5 -11 3 -13 -7 -7 -7 5 -33 10 -57 11 -33 3 -43 0 -43
-12 0 -8 -4 -12 -10 -9 -6 4 -6 -4 0 -21 8 -21 8 -29 -2 -36 -10 -6 -10 -8 1
-8 10 0 11 -3 2 -13 -6 -8 -8 -16 -5 -19 3 -3 7 -22 9 -42 2 -25 0 -34 -8 -29
-7 4 -7 0 1 -9 9 -11 10 -18 2 -23 -6 -3 -8 -11 -4 -16 11 -19 12 -79 1 -79
-8 0 -7 -4 2 -9 9 -6 10 -11 2 -15 -6 -4 -9 -12 -5 -17 9 -16 11 -69 2 -69 -4
0 -6 -6 -4 -12 3 -7 7 -28 10 -46 4 -25 3 -31 -7 -26 -9 6 -8 3 1 -8 9 -11 10
-18 2 -23 -6 -3 -8 -11 -4 -16 11 -18 11 -69 0 -69 -6 0 -4 -5 4 -10 13 -9 13
-10 0 -10 -9 0 -11 -3 -5 -8 6 -4 10 -14 10 -22 0 -8 -4 -18 -10 -22 -6 -5 -5
-8 4 -8 11 0 11 -3 1 -15 -7 -8 -8 -15 -3 -15 5 0 10 -7 10 -15 0 -8 -5 -15
-11 -15 -7 0 -7 -3 -1 -8 13 -9 15 -42 3 -42 -6 0 -6 -6 1 -14 9 -11 9 -15 -1
-19 -7 -3 -8 -6 -3 -6 11 -1 12 -92 1 -109 -4 -7 -3 -12 2 -12 5 0 9 -7 9 -15
0 -8 -5 -15 -11 -15 -7 0 -7 -3 -1 -8 13 -9 15 -42 3 -42 -6 0 -6 -6 1 -14 9
-11 9 -15 -1 -19 -7 -3 -8 -6 -3 -6 10 -1 10 -143 1 -168 -3 -7 0 -13 7 -13 8
0 6 -4 -3 -10 -8 -5 -10 -10 -4 -10 14 0 13 -32 -1 -42 -6 -5 -5 -8 4 -8 11 0
11 -3 1 -15 -7 -8 -8 -15 -3 -15 5 0 10 -7 10 -15 0 -8 -5 -15 -11 -15 -7 0
-7 -3 -1 -8 13 -9 15 -42 3 -42 -6 0 -6 -6 1 -14 9 -11 9 -15 -1 -19 -7 -3 -8
-6 -3 -6 11 -1 12 -92 1 -109 -4 -7 -3 -12 2 -12 5 0 9 -7 9 -15 0 -8 -5 -15
-11 -15 -7 0 -7 -3 -1 -8 13 -9 15 -42 3 -42 -6 0 -5 -6 2 -15 10 -12 10 -15
-1 -15 -9 0 -10 -3 -4 -8 6 -4 10 -54 10 -114 0 -68 -4 -104 -10 -100 -5 3 -4
-1 3 -10 9 -11 10 -18 2 -23 -6 -3 -8 -11 -4 -16 3 -5 7 -25 9 -44 2 -24 -1
-33 -8 -28 -7 4 -7 0 1 -9 9 -11 10 -18 2 -23 -6 -3 -8 -11 -4 -16 10 -16 11
-69 1 -69 -4 0 -5 -5 -2 -10 13 -20 14 -80 2 -73 -7 4 -7 0 1 -9 9 -11 10 -18
2 -23 -6 -3 -8 -11 -4 -16 3 -5 7 -25 9 -44 2 -24 -1 -33 -8 -28 -7 4 -7 0 1
-9 9 -11 10 -18 2 -23 -6 -3 -8 -11 -4 -16 10 -16 11 -69 1 -69 -4 0 -5 -5 -2
-11 11 -17 13 -59 2 -59 -5 0 -4 -6 2 -14 9 -11 9 -15 -1 -19 -7 -3 -8 -6 -2
-6 9 -1 10 -81 0 -123 -2 -10 0 -18 5 -18 6 0 5 -8 -1 -20 -7 -14 -7 -20 0
-20 5 0 10 -5 10 -11 0 -5 -6 -7 -12 -3 -9 5 -9 2 1 -9 9 -12 10 -17 2 -17 -7
0 -9 -5 -6 -10 4 -6 12 -8 18 -4 7 3 3 -2 -7 -10 -15 -12 -16 -16 -5 -16 12 0
12 -2 -1 -10 -8 -5 -10 -10 -4 -10 14 0 13 -32 -1 -42 -6 -5 -5 -8 4 -8 11 0
11 -3 1 -15 -7 -8 -8 -15 -3 -15 5 0 10 -7 10 -15 0 -8 -5 -15 -11 -15 -7 0
-7 -3 -1 -8 13 -9 15 -42 3 -42 -6 0 -6 -6 1 -14 9 -11 9 -15 -1 -19 -7 -3 -8
-6 -3 -6 11 -1 12 -92 1 -109 -4 -7 -3 -12 3 -12 6 0 7 -8 4 -17 -5 -13 -2
-15 11 -10 11 4 15 3 10 -4 -4 -6 1 -9 12 -8 11 2 25 0 32 -4 6 -5 12 -4 12 1
0 11 63 8 81 -4 7 -4 9 -3 6 3 -7 12 42 11 61 -1 7 -4 12 -3 12 2 0 11 63 8
81 -4 7 -4 9 -3 6 3 -7 12 42 11 61 -1 7 -4 12 -3 12 2 0 11 63 8 81 -4 7 -4
9 -3 6 3 -7 12 42 11 61 -1 7 -4 12 -3 12 2 0 11 63 8 81 -4 8 -5 9 -3 4 6 -6
9 -2 10 15 5 17 -6 21 -4 14 6 -6 11 -5 12 7 2 8 -6 39 -11 70 -11 31 1 62 -2
69 -7 8 -5 11 -4 7 2 -7 11 95 9 114 -3 8 -4 10 -3 5 4 -8 13 20 12 41 -1 6
-4 13 -1 16 5 3 10 8 9 22 -2 10 -8 16 -10 12 -4 -4 8 2 11 18 10 14 0 25 -5
25 -11 0 -6 3 -6 8 0 4 6 15 11 25 12 39 2 42 3 27 13 -12 8 -12 10 -1 10 10
0 11 3 2 14 -7 8 -8 16 -3 18 6 2 7 23 2 51 -4 26 -4 47 -1 47 8 0 6 124 -2
137 -3 5 -2 15 3 23 5 8 5 21 0 30 -5 9 -5 22 -1 28 4 7 5 33 1 57 -4 25 -4
45 -1 45 8 0 6 124 -2 137 -3 5 -2 15 3 23 5 8 5 21 0 30 -5 9 -5 22 0 30 5 8
4 22 -1 32 -5 10 -6 18 -2 18 9 0 8 93 -1 108 -3 6 -2 14 4 17 8 5 7 11 -1 21
-9 11 -8 14 2 14 11 0 11 2 -1 10 -8 5 -10 10 -5 10 11 0 12 71 1 89 -4 6 -1
11 6 11 9 0 9 3 -2 10 -13 9 -13 10 0 10 13 0 13 1 0 11 -11 8 -9 9 10 3 31
-8 27 -5 32 -29 1 -11 10 -25 18 -32 8 -7 11 -13 6 -13 -5 0 0 -8 10 -17 11
-10 28 -35 38 -56 10 -21 24 -41 31 -43 8 -3 11 -11 9 -19 -3 -7 5 -21 18 -31
13 -11 25 -28 26 -39 2 -11 8 -21 13 -23 5 -2 9 -10 9 -18 0 -8 3 -14 8 -14 4
0 13 -14 20 -30 8 -17 18 -28 23 -24 5 3 9 -6 9 -19 0 -14 7 -28 16 -31 8 -3
12 -10 9 -16 -3 -5 -1 -10 4 -10 6 0 11 -7 11 -15 0 -8 3 -15 8 -15 9 0 38
-61 34 -73 -1 -5 2 -6 7 -3 5 4 12 -3 16 -14 3 -11 11 -20 16 -20 6 0 7 -4 4
-10 -3 -5 -1 -10 4 -10 6 0 11 -6 11 -14 0 -8 4 -16 9 -18 5 -1 11 -10 13 -18
5 -21 22 -39 32 -32 5 3 6 0 2 -6 -3 -6 1 -18 10 -26 8 -9 13 -16 9 -16 -3 0
2 -8 12 -19 12 -12 30 -18 53 -16 19 1 38 -3 43 -9 5 -8 9 -8 15 -1 8 12 27
13 38 3 4 -4 13 -3 21 3 9 8 17 8 26 0 8 -6 17 -7 21 -3 11 10 30 9 39 -3 5
-7 9 -7 15 0 8 12 27 13 38 3 4 -4 13 -3 21 3 9 8 17 8 26 0 8 -6 17 -7 21 -3
11 10 30 9 39 -3 5 -7 9 -7 15 0 8 12 27 13 38 3 4 -4 13 -3 21 3 9 9 17 8 27
0 10 -8 16 -9 21 -1 3 6 10 8 15 5 5 -3 17 8 26 24 10 17 22 27 27 24 6 -3 7
-1 3 5 -3 6 -2 13 4 17 6 4 8 10 5 14 -2 5 6 20 20 35 13 14 21 26 18 26 -3 0
0 7 7 15 6 8 9 19 5 25 -4 6 -1 9 7 8 7 -2 12 5 12 14 -1 10 2 15 7 12 8 -5
13 10 10 29 -1 5 3 6 9 2 9 -6 35 41 32 58 -1 4 3 7 8 7 6 0 10 9 10 20 0 11
5 19 11 17 6 -1 13 7 15 18 1 11 8 21 13 23 6 2 11 12 11 23 0 11 7 22 15 25
8 4 15 12 15 19 0 8 6 20 13 27 6 7 21 30 32 51 11 20 23 37 28 37 4 0 5 5 2
10 -4 6 7 24 24 40 16 17 25 30 20 30 -5 0 -4 9 3 19 7 11 16 18 20 15 4 -3 5
2 2 10 -3 9 -2 16 3 16 5 0 17 16 26 35 9 19 22 35 27 35 6 0 8 5 4 11 -4 7 0
10 10 7 10 -1 16 -5 15 -8 -1 -3 3 -16 10 -29 7 -13 8 -21 3 -17 -7 4 -10 -7
-9 -29 1 -19 7 -35 12 -35 6 0 6 -3 -1 -8 -13 -9 -13 -52 1 -52 5 0 4 -4 -4
-9 -13 -8 -13 -12 0 -27 8 -10 9 -15 2 -11 -13 8 -12 -30 2 -52 5 -9 4 -12 -3
-7 -12 7 -11 -32 3 -53 6 -10 4 -12 -4 -7 -16 10 -11 -24 6 -42 6 -7 10 -21 8
-32 -2 -11 2 -20 8 -20 8 0 8 -3 -1 -9 -17 -11 -17 -21 0 -32 7 -5 8 -9 2 -9
-13 0 -13 -62 1 -72 6 -5 6 -8 -2 -8 -12 0 -12 -17 0 -37 4 -6 3 -14 -2 -17
-10 -7 -9 -25 2 -42 3 -6 3 -14 0 -18 -12 -12 -12 -36 0 -36 8 0 7 -3 -1 -9
-17 -11 -17 -21 0 -32 8 -6 9 -9 1 -9 -12 0 -12 -17 0 -36 3 -6 3 -14 0 -18
-12 -12 -11 -56 1 -56 7 0 8 -3 1 -8 -12 -8 -13 -22 -2 -39 4 -6 3 -14 -2 -17
-10 -7 -9 -31 2 -42 3 -4 1 -16 -5 -28 -13 -24 -13 -22 6 -41 10 -10 29 -14
60 -11 29 2 46 -1 46 -8 0 -7 3 -7 8 -1 4 6 21 10 37 10 17 0 33 -4 37 -10 5
-7 8 -7 8 0 0 6 32 10 75 10 43 0 75 -4 75 -10 0 -7 3 -7 8 0 8 12 192 14 192
2 0 -5 6 -5 13 0 21 13 49 14 41 1 -5 -7 -3 -8 7 -3 18 11 99 13 99 2 0 -4 6
-5 13 0 21 13 47 13 47 0 0 -7 3 -8 8 -2 8 12 92 14 92 2 0 -4 6 -5 13 0 21
13 49 14 41 1 -5 -7 -3 -8 7 -3 19 13 99 12 99 0 0 -6 3 -7 8 0 8 12 152 14
152 2 0 -5 6 -5 13 0 21 13 49 14 41 1 -5 -7 -3 -8 7 -3 18 11 99 13 99 2 0
-4 6 -5 13 0 21 13 47 13 47 0 0 -7 3 -8 8 -2 8 12 92 14 92 2 0 -4 6 -5 13 0
21 13 49 14 41 1 -5 -7 -3 -8 7 -3 19 13 99 12 99 0 0 -6 3 -7 8 0 8 11 87 14
98 3 3 -4 14 -4 23 1 20 9 32 8 50 -3 9 -6 12 -5 7 2 -7 11 31 11 51 -1 5 -3
13 -4 17 0 10 11 106 9 106 -2 0 -6 3 -7 8 0 4 6 21 10 37 10 17 0 33 -4 37
-10 5 -7 8 -7 8 0 0 13 143 13 152 0 5 -6 8 -6 8 1 0 6 12 10 26 8 26 -2 59
18 48 29 -10 9 -11 67 -2 67 5 0 4 9 -2 20 -8 15 -8 20 2 20 9 0 9 3 -2 10
-13 9 -13 10 0 10 9 0 11 3 5 8 -5 4 -10 37 -10 75 0 38 4 67 10 67 6 0 3 5
-5 10 -9 6 -11 10 -3 10 7 0 10 7 7 15 -9 23 -10 105 -1 105 5 0 5 5 1 11 -11
18 -10 89 1 89 6 0 3 5 -5 10 -9 6 -11 10 -3 10 7 0 10 7 7 15 -9 23 -10 105
-1 105 5 0 5 5 1 11 -11 18 -10 89 1 89 6 0 3 5 -5 10 -10 6 -11 10 -3 10 9 0
10 7 4 23 -4 12 -6 27 -4 33 2 6 -3 14 -12 17 -8 4 -15 1 -15 -6 0 -9 -2 -9
-8 0 -9 14 -44 12 -54 -2 -5 -6 -8 -6 -8 1 0 14 -50 13 -50 -1 0 -5 -4 -5 -8
2 -9 14 -44 12 -54 -2 -5 -7 -8 -6 -8 0 0 6 -18 11 -39 11 -24 0 -37 -4 -34
-9 4 -6 1 -7 -8 -2 -21 14 -60 15 -53 3 5 -7 2 -8 -7 -3 -22 14 -60 15 -52 2
5 -9 3 -9 -8 0 -17 13 -28 14 -50 2 -9 -5 -20 -4 -26 2 -8 8 -18 7 -33 -1 -12
-7 -20 -8 -17 -3 5 8 -139 11 -168 3 -5 -1 -12 -1 -15 0 -20 7 -88 5 -83 -3 4
-6 1 -7 -8 -2 -22 14 -60 15 -52 2 5 -9 3 -9 -8 -1 -15 11 -138 12 -157 0 -6
-3 -14 -1 -18 5 -5 8 -3 9 6 4 9 -6 11 -4 5 4 -5 9 -11 9 -17 3 -6 -6 -17 -8
-26 -5 -11 5 -13 3 -7 -7 6 -9 4 -11 -6 -5 -22 14 -60 15 -52 2 5 -9 3 -9 -8
-1 -8 5 -24 9 -36 8 -14 -1 -23 4 -23 12 0 8 -4 14 -9 14 -12 0 -8 43 4 52 7
5 7 8 0 8 -14 0 -15 90 -1 90 7 0 8 3 1 8 -14 9 -14 45 0 54 7 5 7 8 0 8 -14
0 -15 53 -1 62 8 5 7 8 -1 8 -14 0 -13 40 2 40 7 0 7 3 0 8 -6 4 -11 16 -11
27 0 11 5 23 11 27 7 5 7 8 0 8 -15 0 -16 70 -1 70 7 0 8 3 1 8 -6 4 -11 16
-11 27 0 11 5 23 11 27 7 5 7 8 0 8 -14 0 -15 53 -1 62 8 5 7 8 -1 8 -14 0
-13 40 2 40 7 0 7 3 0 8 -6 4 -11 16 -11 27 0 11 5 23 11 27 7 5 7 8 0 8 -15
0 -16 70 -1 70 7 0 8 3 1 8 -14 9 -14 45 0 54 6 5 7 8 0 8 -6 0 -11 13 -11 30
-1 20 2 27 10 23 8 -5 8 -3 0 8 -14 18 -14 49 0 49 7 0 7 3 1 8 -14 10 -15 52
-1 52 7 0 7 3 1 8 -13 9 -13 75 0 84 6 5 6 8 -1 8 -6 0 -11 11 -11 25 0 14 5
25 11 25 7 0 8 3 1 8 -6 4 -11 16 -11 27 0 11 5 23 11 27 6 5 7 8 0 8 -6 0
-11 13 -11 30 -1 18 2 27 9 23 6 -4 7 -1 1 8 -14 23 -15 49 -1 49 7 0 8 3 2 8
-14 10 -17 65 -3 56 7 -5 8 -2 2 7 -14 23 -15 49 -1 49 7 0 8 3 2 8 -14 10
-17 65 -3 56 7 -5 8 -2 2 7 -14 23 -15 49 -1 49 7 0 8 3 2 8 -14 10 -17 65 -3
56 7 -5 8 -3 2 7 -12 19 -13 68 -2 75 5 3 4 11 -2 19 -12 15 -10 36 5 47 6 5
5 8 -2 8 -13 0 -13 34 0 46 4 4 2 13 -4 21 -9 9 -8 17 0 27 8 9 8 16 2 20 -13
8 -10 46 4 46 5 0 4 4 -3 9 -18 11 -17 20 5 38 10 8 13 12 6 9 -11 -6 -11 54
1 73 4 5 1 13 -5 17 -8 5 -9 3 -4 -6 5 -9 4 -11 -4 -6 -6 4 -8 13 -4 19 13 20
12 127 0 127 -8 0 -9 3 -1 8 15 10 27 45 12 36 -8 -5 -9 -2 -5 9 3 10 5 17 4
17 -1 0 -17 4 -35 9 -20 6 -30 6 -27 0 8 -12 -7 -12 -39 1 -21 8 -24 7 -19 -7
5 -13 3 -13 -14 -5 -11 6 -28 9 -39 8 -10 -2 -31 0 -46 5 -22 6 -26 4 -21 -8
5 -13 2 -13 -14 -5 -11 6 -28 9 -39 8 -10 -2 -31 0 -46 5 -22 6 -26 4 -21 -8
5 -13 2 -13 -14 -5 -11 6 -28 9 -39 8 -10 -2 -31 0 -46 5 -22 6 -26 4 -21 -8
5 -13 2 -13 -14 -5 -11 6 -28 9 -39 8 -10 -2 -32 1 -47 5 -26 7 -27 6 -15 -8
11 -14 11 -15 -2 -7 -8 5 -103 10 -210 10 -192 1 -195 1 -219 -22 -13 -13 -20
-24 -15 -24 5 0 -2 -7 -14 -16 -13 -9 -21 -21 -19 -27 2 -7 -2 -18 -10 -25 -7
-8 -11 -18 -8 -23 4 -5 -1 -6 -10 -3 -11 5 -14 2 -9 -10 4 -10 1 -16 -7 -16
-7 0 -10 -3 -6 -6 3 -4 1 -12 -6 -20 -32 -36 -38 -45 -32 -54 3 -6 -1 -10 -9
-10 -8 0 -18 -5 -22 -12 -5 -7 -3 -8 5 -3 15 9 -5 -29 -31 -59 -10 -11 -18
-26 -18 -33 0 -8 -6 -16 -14 -19 -8 -3 -17 -13 -20 -21 -6 -14 -4 -14 11 -2
10 7 6 0 -10 -17 -15 -17 -24 -33 -20 -37 3 -4 1 -7 -5 -7 -6 0 -16 -16 -23
-34 -7 -19 -16 -33 -21 -30 -4 3 -8 -4 -8 -15 0 -12 -4 -21 -10 -21 -5 0 -10
-7 -10 -15 0 -8 -5 -15 -11 -15 -5 0 -7 -4 -4 -10 3 -5 1 -10 -4 -10 -6 0 -11
-9 -11 -20 0 -10 -9 -24 -20 -30 -11 -6 -20 -20 -20 -30 0 -11 -5 -20 -12 -20
-6 0 -9 -3 -5 -6 3 -3 -3 -14 -14 -25 -11 -11 -17 -23 -15 -28 3 -4 -5 -19
-17 -32 -12 -13 -21 -27 -19 -31 1 -5 -3 -8 -9 -8 -5 0 -7 -4 -4 -10 3 -5 1
-10 -4 -10 -6 0 -11 -12 -11 -27 0 -22 -2 -25 -10 -13 -8 13 -10 12 -10 -2 0
-10 -5 -18 -11 -18 -5 0 -7 -4 -4 -10 3 -5 0 -10 -7 -10 -9 0 -9 -3 2 -10 13
-8 12 -10 -2 -10 -10 0 -18 -7 -18 -15 0 -8 -5 -15 -11 -15 -8 0 -7 -6 2 -17
8 -9 9 -14 3 -10 -12 7 -67 -67 -67 -90 0 -7 -7 -13 -14 -13 -8 0 -12 -4 -8
-9 3 -5 -2 -17 -11 -25 -8 -9 -12 -16 -7 -16 4 0 0 -7 -10 -14 -10 -8 -18 -17
-17 -20 3 -17 -34 -75 -44 -69 -6 3 -8 3 -4 -2 9 -10 -10 -46 -34 -63 -16 -12
-17 -16 -6 -30 7 -9 9 -13 3 -10 -5 3 -19 -6 -29 -20 -12 -16 -14 -23 -5 -18
8 4 6 1 -3 -7 -10 -8 -18 -19 -18 -26 0 -6 -5 -11 -12 -11 -6 0 -8 -3 -5 -6
10 -10 -12 -44 -29 -44 -8 0 -13 4 -10 8 3 5 -4 14 -14 22 -10 8 -17 17 -14
22 3 4 0 8 -5 8 -6 0 -11 7 -11 15 0 9 -7 18 -15 21 -8 4 -12 10 -9 15 3 5 0
9 -6 9 -7 0 -10 6 -8 12 3 7 -1 19 -9 26 -7 8 -10 18 -7 24 4 6 2 8 -4 4 -6
-3 -16 7 -24 24 -7 16 -16 30 -20 30 -5 0 -8 6 -8 14 0 8 -12 25 -27 37 -21
17 -23 20 -8 16 19 -7 19 -6 2 7 -10 8 -17 17 -15 20 2 3 -5 15 -14 26 -10 11
-18 25 -18 30 0 6 -4 10 -10 10 -5 0 -10 9 -10 21 0 11 -4 17 -10 14 -5 -3
-12 6 -16 20 -3 14 -10 25 -16 25 -5 0 -6 5 -3 10 3 6 1 10 -5 10 -7 0 -9 7
-6 16 5 12 2 15 -9 10 -9 -3 -14 -2 -11 2 2 4 -4 23 -15 42 -10 19 -18 31 -19
25 0 -5 -8 6 -19 25 -10 19 -17 38 -14 43 2 4 -1 7 -6 7 -6 0 -11 7 -11 15 0
8 -5 15 -12 15 -6 0 -9 3 -5 6 3 4 -1 13 -9 21 -8 8 -12 19 -8 24 3 5 0 8 -8
7 -7 -2 -12 3 -11 10 2 6 -2 12 -8 12 -5 0 -7 5 -4 10 3 6 1 10 -4 10 -6 0
-11 7 -11 15 0 8 -4 15 -10 15 -5 0 -10 9 -10 21 0 11 -4 18 -8 15 -4 -2 -19
16 -32 42 -14 26 -27 49 -31 52 -10 8 -33 55 -31 63 1 4 -2 7 -7 7 -5 0 -14
14 -22 31 -7 18 -23 42 -35 54 -13 13 -26 35 -30 49 -3 14 -10 23 -15 20 -5
-3 -9 7 -9 21 0 15 -4 24 -10 20 -9 -5 -11 -1 -10 20 1 3 -5 12 -12 20 -30 33
-34 41 -30 54 3 8 0 11 -7 7 -7 -5 -11 1 -11 13 0 12 -7 21 -15 21 -8 0 -15 3
-14 8 2 15 -14 52 -23 52 -5 0 -6 5 -3 10 3 6 -1 10 -10 10 -9 0 -13 5 -10 10
3 6 1 10 -5 10 -6 0 -8 5 -5 10 3 6 1 10 -4 10 -6 0 -11 6 -11 14 0 8 -6 16
-12 19 -7 2 -92 4 -188 3 -96 -1 -187 2 -202 5 -21 6 -26 4 -21 -8 5 -13 2
-13 -14 -5 -11 6 -28 9 -39 8 -10 -2 -31 0 -46 5 -22 6 -26 4 -21 -8 5 -13 2
-13 -14 -5 -11 6 -28 9 -39 8 -10 -2 -31 0 -46 5 -22 6 -26 4 -21 -8 5 -13 2
-13 -14 -5 -11 6 -28 9 -39 8 -10 -2 -31 0 -46 5 -22 6 -26 4 -21 -8 5 -13 2
-13 -14 -5 -11 6 -28 9 -39 8 -10 -2 -31 0 -46 5 -22 6 -26 4 -21 -9z"/>
</g>
</svg>
