<?xml version="1.0" encoding="UTF-8" standalone="no" ?>
<!DOCTYPE svg PUBLIC "-//W3C//DTD SVG 1.1//EN" "http://www.w3.org/Graphics/SVG/1.1/DTD/svg11.dtd">
<svg xmlns="http://www.w3.org/2000/svg" xmlns:xlink="http://www.w3.org/1999/xlink" version="1.1" width="1080" height="1080" viewBox="0 0 1080 1080" xml:space="preserve">
<desc>Created with Fabric.js 5.2.4</desc>
<defs>
</defs>
<g transform="matrix(1 0 0 1 540 540)" id="b09a88ef-4cfd-432f-a477-8ba358cc606d"  >
<rect style="stroke: none; stroke-width: 1; stroke-dasharray: none; stroke-linecap: butt; stroke-dashoffset: 0; stroke-linejoin: miter; stroke-miterlimit: 4; fill: rgb(255,255,255); fill-rule: nonzero; opacity: 1; visibility: hidden;" vector-effect="non-scaling-stroke"  x="-540" y="-540" rx="0" ry="0" width="1080" height="1080" />
</g>
<g transform="matrix(1 0 0 1 540 540)" id="46e0c423-4b88-4edd-9509-2866617cce39"  >
</g>
<g transform="matrix(1 0 0 1 540 540)"  >
<g style="" vector-effect="non-scaling-stroke"   >
		<g transform="matrix(1 0 0 1 0 0)"  >
<path style="stroke: none; stroke-width: 1; stroke-dasharray: none; stroke-linecap: butt; stroke-dashoffset: 0; stroke-linejoin: miter; stroke-miterlimit: 4; fill: rgb(52,89,149); fill-rule: nonzero; opacity: 1;" vector-effect="non-scaling-stroke"  transform=" translate(-256, -256)" d="M 480 224 L 32 224 C 14.327000000000002 224 0 238.327 0 256 C 0 273.673 14.327 288 32 288 L 480 288 C 497.673 288 512 273.673 512 256 C 512 238.327 497.673 224 480 224 z" stroke-linecap="round" />
</g>
		<g transform="matrix(1 0 0 1 0 -149.33)"  >
<path style="stroke: none; stroke-width: 1; stroke-dasharray: none; stroke-linecap: butt; stroke-dashoffset: 0; stroke-linejoin: miter; stroke-miterlimit: 4; fill: rgb(52,89,149); fill-rule: nonzero; opacity: 1;" vector-effect="non-scaling-stroke"  transform=" translate(-256, -106.67)" d="M 32 138.667 L 480 138.667 C 497.673 138.667 512 124.34 512 106.667 C 512 88.994 497.673 74.667 480 74.667 L 32 74.667 C 14.327000000000002 74.667 0 88.994 0 106.667 C 0 124.34 14.327 138.667 32 138.667 z" stroke-linecap="round" />
</g>
		<g transform="matrix(1 0 0 1 0 149.33)"  >
<path style="stroke: none; stroke-width: 1; stroke-dasharray: none; stroke-linecap: butt; stroke-dashoffset: 0; stroke-linejoin: miter; stroke-miterlimit: 4; fill: rgb(52,89,149); fill-rule: nonzero; opacity: 1;" vector-effect="non-scaling-stroke"  transform=" translate(-256, -405.33)" d="M 480 373.333 L 32 373.333 C 14.327000000000002 373.333 0 387.66 0 405.333 C 0 423.00600000000003 14.327 437.333 32 437.333 L 480 437.333 C 497.673 437.333 512 423.00600000000003 512 405.333 C 512 387.66 497.673 373.333 480 373.333 z" stroke-linecap="round" />
</g>
</g>
</g>
<g transform="matrix(NaN NaN NaN NaN 0 0)"  >
<g style=""   >
</g>
</g>
</svg>